<svg id="Livello_2" data-name="Livello 2" xmlns="http://www.w3.org/2000/svg" viewBox="0 0 856 163.9899"><defs><style>.cls-1,.cls-2{fill:#00ff06;stroke:#282828;stroke-miterlimit:10;}.cls-2{font-size:79.682px;font-family:ROGFonts-Regular, ROG Fonts;}.cls-3{letter-spacing:0.01em;}.cls-4{letter-spacing:0.01em;}</style></defs><polygon class="cls-1" points="0.5 128.088 14.721 113.867 43.164 113.867 43.164 142.309 28.943 156.531 0.5 156.531 0.5 128.088"/><polyline class="cls-1" points="0.5 128.088 28.943 128.088 28.943 156.531"/><line class="cls-1" x1="43.1638" y1="113.8667" x2="28.9425" y2="128.088"/><polygon class="cls-1" points="0.5 99.645 14.721 85.424 43.164 85.424 43.164 113.867 28.943 128.088 0.5 128.088 0.5 99.645"/><polyline class="cls-1" points="0.5 99.645 28.943 99.645 28.943 128.088"/><line class="cls-1" x1="43.1638" y1="85.4242" x2="28.9425" y2="99.6455"/><polygon class="cls-1" points="0.5 71.203 14.721 56.982 43.164 56.982 43.164 85.424 28.943 99.645 0.5 99.645 0.5 71.203"/><polyline class="cls-1" points="0.5 71.203 28.943 71.203 28.943 99.645"/><line class="cls-1" x1="43.1638" y1="56.9816" x2="28.9425" y2="71.2029"/><polygon class="cls-1" points="755.8 134.871 770.021 120.65 798.464 120.65 798.464 149.092 784.242 163.313 755.8 163.313 755.8 134.871"/><polyline class="cls-1" points="755.8 134.871 784.242 134.871 784.242 163.313"/><line class="cls-1" x1="798.4636" y1="120.6496" x2="784.2424" y2="134.8708"/><polygon class="cls-1" points="0.5 42.76 14.721 28.539 43.164 28.539 43.164 56.982 28.943 71.203 0.5 71.203 0.5 42.76"/><polyline class="cls-1" points="0.5 42.76 28.943 42.76 28.943 71.203"/><line class="cls-1" x1="43.1638" y1="28.5391" x2="28.9425" y2="42.7604"/><polygon class="cls-1" points="0.5 14.721 14.721 0.5 43.164 0.5 43.164 28.943 28.943 43.164 0.5 43.164 0.5 14.721"/><polyline class="cls-1" points="0.5 14.721 28.943 14.721 28.943 43.164"/><line class="cls-1" x1="43.1638" y1="0.5" x2="28.9425" y2="14.7213"/><polygon class="cls-1" points="28.943 99.645 43.164 85.424 71.606 85.424 71.606 113.867 57.385 128.088 28.943 128.088 28.943 99.645"/><polyline class="cls-1" points="28.943 99.645 57.385 99.645 57.385 128.088"/><line class="cls-1" x1="71.6064" y1="85.4242" x2="57.3851" y2="99.6455"/><polygon class="cls-1" points="28.943 71.203 43.164 56.982 71.606 56.982 71.606 85.424 57.385 99.645 28.943 99.645 28.943 71.203"/><polyline class="cls-1" points="28.943 71.203 57.385 71.203 57.385 99.645"/><line class="cls-1" x1="71.6064" y1="56.9816" x2="57.3851" y2="71.2029"/><polygon class="cls-1" points="28.943 42.76 43.164 28.539 71.606 28.539 71.606 56.982 57.385 71.203 28.943 71.203 28.943 42.76"/><polyline class="cls-1" points="28.943 42.76 57.385 42.76 57.385 71.203"/><line class="cls-1" x1="71.6064" y1="28.5391" x2="57.3851" y2="42.7604"/><polygon class="cls-1" points="57.385 71.203 71.606 56.982 100.049 56.982 100.049 85.424 85.828 99.645 57.385 99.645 57.385 71.203"/><polyline class="cls-1" points="57.385 71.203 85.828 71.203 85.828 99.645"/><line class="cls-1" x1="100.0489" y1="56.9816" x2="85.8276" y2="71.2029"/><polygon class="cls-1" points="755.85 106.781 770.072 92.56 798.514 92.56 798.514 121.003 784.293 135.224 755.85 135.224 755.85 106.781"/><polyline class="cls-1" points="755.85 106.781 784.293 106.781 784.293 135.224"/><line class="cls-1" x1="798.5141" y1="92.56" x2="784.2928" y2="106.7813"/><polygon class="cls-1" points="755.85 78.137 770.072 63.916 798.514 63.916 798.514 92.358 784.293 106.58 755.85 106.58 755.85 78.137"/><polyline class="cls-1" points="755.85 78.137 784.293 78.137 784.293 106.58"/><line class="cls-1" x1="798.5141" y1="63.9158" x2="784.2928" y2="78.137"/><polygon class="cls-1" points="755.8 49.695 770.021 35.473 798.464 35.473 798.464 63.916 784.242 78.137 755.8 78.137 755.8 49.695"/><polyline class="cls-1" points="755.8 49.695 784.242 49.695 784.242 78.137"/><line class="cls-1" x1="798.4636" y1="35.4732" x2="784.2424" y2="49.6945"/><polygon class="cls-1" points="755.85 21.05 770.072 6.829 798.514 6.829 798.514 35.272 784.293 49.493 755.85 49.493 755.85 21.05"/><polyline class="cls-1" points="755.85 21.05 784.293 21.05 784.293 49.493"/><line class="cls-1" x1="798.5141" y1="6.829" x2="784.2928" y2="21.0502"/><polygon class="cls-1" points="812.786 135.047 827.007 120.826 855.45 120.826 855.45 149.269 841.228 163.49 812.786 163.49 812.786 135.047"/><polyline class="cls-1" points="812.786 135.047 841.228 135.047 841.228 163.49"/><line class="cls-1" x1="855.4496" y1="120.8261" x2="841.2283" y2="135.0473"/><polygon class="cls-1" points="812.836 106.958 827.057 92.737 855.5 92.737 855.5 121.179 841.279 135.4 812.836 135.4 812.836 106.958"/><polyline class="cls-1" points="812.836 106.958 841.279 106.958 841.279 135.4"/><line class="cls-1" x1="855.5" y1="92.7365" x2="841.2787" y2="106.9578"/><polygon class="cls-1" points="812.836 78.314 827.057 64.092 855.5 64.092 855.5 92.535 841.279 106.756 812.836 106.756 812.836 78.314"/><polyline class="cls-1" points="812.836 78.314 841.279 78.314 841.279 106.756"/><line class="cls-1" x1="855.5" y1="64.0923" x2="841.2787" y2="78.3136"/><polygon class="cls-1" points="812.786 49.871 827.007 35.65 855.45 35.65 855.45 64.092 841.228 78.314 812.786 78.314 812.786 49.871"/><polyline class="cls-1" points="812.786 49.871 841.228 49.871 841.228 78.314"/><line class="cls-1" x1="855.4496" y1="35.6497" x2="841.2283" y2="49.871"/><polygon class="cls-1" points="812.836 21.227 827.057 7.005 855.5 7.005 855.5 35.448 841.279 49.669 812.836 49.669 812.836 21.227"/><polyline class="cls-1" points="812.836 21.227 841.279 21.227 841.279 49.669"/><line class="cls-1" x1="855.5" y1="7.0055" x2="841.2787" y2="21.2267"/><text class="cls-2" transform="translate(124.8633 110.5534)">Vi<tspan class="cls-3" x="95.6958" y="0">d</tspan><tspan x="164.062" y="0">eo T</tspan><tspan class="cls-4" x="397.3672" y="0">ub</tspan><tspan x="535.4531" y="0">e</tspan></text></svg>