<?xml version="1.0" encoding="UTF-8" standalone="no"?>
<svg
   xmlns:dc="http://purl.org/dc/elements/1.1/"
   xmlns:cc="http://creativecommons.org/ns#"
   xmlns:rdf="http://www.w3.org/1999/02/22-rdf-syntax-ns#"
   xmlns:svg="http://www.w3.org/2000/svg"
   xmlns="http://www.w3.org/2000/svg"
   xmlns:sodipodi="http://sodipodi.sourceforge.net/DTD/sodipodi-0.dtd"
   xmlns:inkscape="http://www.inkscape.org/namespaces/inkscape"
   version="1.1"
   width="24"
   height="24"
   viewBox="0 0 24 24"
   id="svg4"
   sodipodi:docname="youtube-tv.svg"
   inkscape:version="1.0.2 (e86c870879, 2021-01-15, custom)">
  <metadata
     id="metadata10">
    <rdf:RDF>
      <cc:Work
         rdf:about="">
        <dc:format>image/svg+xml</dc:format>
        <dc:type
           rdf:resource="http://purl.org/dc/dcmitype/StillImage" />
      </cc:Work>
    </rdf:RDF>
  </metadata>
  <defs
     id="defs8" />
  <sodipodi:namedview
     pagecolor="#ffffff"
     bordercolor="#666666"
     borderopacity="1"
     objecttolerance="10"
     gridtolerance="10"
     guidetolerance="10"
     inkscape:pageopacity="0"
     inkscape:pageshadow="2"
     inkscape:window-width="1366"
     inkscape:window-height="705"
     id="namedview6"
     showgrid="false"
     inkscape:zoom="22.416667"
     inkscape:cx="12"
     inkscape:cy="8.4312268"
     inkscape:window-x="-8"
     inkscape:window-y="-8"
     inkscape:window-maximized="1"
     inkscape:current-layer="svg4" />
  <path
     d="M 4.2272728,5.5 H 19.772728 C 20.46,5.5 21,5.9924242 21,6.6363636 v 8.7121204 c 0,0.64394 -0.54,1.136364 -1.227272,1.136364 H 4.2272728 C 3.5318182,16.484848 3,15.992424 3,15.348484 V 6.6363636 C 3,5.9924242 3.5318182,5.5 4.2272728,5.5 m 5.8990912,3.030303 v 4.924243 l 4.671818,-2.5 -4.671818,-2.424243 M 16.295454,18 H 7.6227272 c -0.2454544,0 -0.4090908,-0.151516 -0.4090908,-0.378788 0,-0.227272 0.1636364,-0.378788 0.4090908,-0.378788 h 8.7545448 c 0.245456,0 0.409092,0.151516 0.409092,0.378788 C 16.786364,17.848484 16.54091,18 16.295454,18 Z"
     id="path2"
     style="fill:#000000;stroke-width:0.787296" />
  <rect
     style="fill:#7fff00;stroke-width:185.124;stroke-linecap:round;stroke-linejoin:round;paint-order:stroke fill markers"
     id="rect850"
     width="24"
     height="24"
     x="0"
     y="0"
     rx="0"
     ry="1.873606" />
  <path
     d="M 4.2272728,5.5 H 19.772728 C 20.46,5.5 21,5.9924242 21,6.6363636 v 8.7121204 c 0,0.64394 -0.54,1.136364 -1.227272,1.136364 H 4.2272728 C 3.5318182,16.484848 3,15.992424 3,15.348484 V 6.6363636 C 3,5.9924242 3.5318182,5.5 4.2272728,5.5 m 5.8990912,3.030303 v 4.924243 l 4.671818,-2.5 -4.671818,-2.424243 M 16.295454,18 H 7.6227272 c -0.2454544,0 -0.4090908,-0.151516 -0.4090908,-0.378788 0,-0.227272 0.1636364,-0.378788 0.4090908,-0.378788 h 8.7545448 c 0.245456,0 0.409092,0.151516 0.409092,0.378788 C 16.786364,17.848484 16.54091,18 16.295454,18 Z"
     id="path2-1"
     style="fill:#222222;stroke-width:0.787296;fill-opacity:1" />
</svg>
